<svg width="335" height="85" viewBox="0 0 335 85" fill="none" xmlns="http://www.w3.org/2000/svg">
<circle cx="9" cy="67" r="9" transform="rotate(-90 9 67)" fill="url(#paint0_linear_1232_178)"/>
<circle cx="9" cy="40" r="9" transform="rotate(-90 9 40)" fill="url(#paint1_linear_1232_178)"/>
<circle cx="9" cy="13" r="9" transform="rotate(-90 9 13)" fill="url(#paint2_linear_1232_178)"/>
<path d="M26.36 29.56H35.56V34H20.76V6.08H26.36V29.56ZM41.9594 9.2C40.9727 9.2 40.146 8.89333 39.4794 8.28C38.8394 7.64 38.5194 6.85333 38.5194 5.92C38.5194 4.98667 38.8394 4.21333 39.4794 3.6C40.146 2.96 40.9727 2.64 41.9594 2.64C42.946 2.64 43.7594 2.96 44.3994 3.6C45.066 4.21333 45.3994 4.98667 45.3994 5.92C45.3994 6.85333 45.066 7.64 44.3994 8.28C43.7594 8.89333 42.946 9.2 41.9594 9.2ZM44.7194 11.84V34H39.1194V11.84H44.7194ZM55.3722 29.4H65.2522V34H49.0122V29.48L58.6922 16.44H49.0522V11.84H65.1322V16.36L55.3722 29.4ZM30.52 46.08C33.4533 46.08 36.0267 46.6533 38.24 47.8C40.48 48.9467 42.2 50.5867 43.4 52.72C44.6267 54.8267 45.24 57.28 45.24 60.08C45.24 62.88 44.6267 65.3333 43.4 67.44C42.2 69.52 40.48 71.1333 38.24 72.28C36.0267 73.4267 33.4533 74 30.52 74H20.76V46.08H30.52ZM30.32 69.24C33.2533 69.24 35.52 68.44 37.12 66.84C38.72 65.24 39.52 62.9867 39.52 60.08C39.52 57.1733 38.72 54.9067 37.12 53.28C35.52 51.6267 33.2533 50.8 30.32 50.8H26.36V69.24H30.32ZM70.0319 62.44C70.0319 63.24 69.9785 63.96 69.8719 64.6H53.6719C53.8052 66.2 54.3652 67.4533 55.3519 68.36C56.3385 69.2667 57.5519 69.72 58.9919 69.72C61.0719 69.72 62.5519 68.8267 63.4319 67.04H69.4719C68.8319 69.1733 67.6052 70.9333 65.7919 72.32C63.9785 73.68 61.7519 74.36 59.1119 74.36C56.9785 74.36 55.0585 73.8933 53.3519 72.96C51.6719 72 50.3519 70.6533 49.3919 68.92C48.4585 67.1867 47.9919 65.1867 47.9919 62.92C47.9919 60.6267 48.4585 58.6133 49.3919 56.88C50.3252 55.1467 51.6319 53.8133 53.3119 52.88C54.9919 51.9467 56.9252 51.48 59.1119 51.48C61.2185 51.48 63.0985 51.9333 64.7519 52.84C66.4319 53.7467 67.7252 55.04 68.6319 56.72C69.5652 58.3733 70.0319 60.28 70.0319 62.44ZM64.2319 60.84C64.2052 59.4 63.6852 58.2533 62.6719 57.4C61.6585 56.52 60.4185 56.08 58.9519 56.08C57.5652 56.08 56.3919 56.5067 55.4319 57.36C54.4985 58.1867 53.9252 59.3467 53.7119 60.84H64.2319ZM82.5994 74.36C80.786 74.36 79.1594 74.04 77.7194 73.4C76.2794 72.7333 75.1327 71.84 74.2794 70.72C73.4527 69.6 72.9994 68.36 72.9194 67H78.5594C78.666 67.8533 79.0794 68.56 79.7994 69.12C80.546 69.68 81.466 69.96 82.5594 69.96C83.626 69.96 84.4527 69.7467 85.0394 69.32C85.6527 68.8933 85.9594 68.3467 85.9594 67.68C85.9594 66.96 85.586 66.4267 84.8394 66.08C84.1194 65.7067 82.9594 65.3067 81.3594 64.88C79.706 64.48 78.346 64.0667 77.2794 63.64C76.2394 63.2133 75.3327 62.56 74.5594 61.68C73.8127 60.8 73.4394 59.6133 73.4394 58.12C73.4394 56.8933 73.786 55.7733 74.4794 54.76C75.1994 53.7467 76.2127 52.9467 77.5194 52.36C78.8527 51.7733 80.4127 51.48 82.1994 51.48C84.8394 51.48 86.946 52.1467 88.5194 53.48C90.0927 54.7867 90.9594 56.56 91.1194 58.8H85.7594C85.6794 57.92 85.306 57.2267 84.6394 56.72C83.9994 56.1867 83.1327 55.92 82.0394 55.92C81.026 55.92 80.2394 56.1067 79.6794 56.48C79.146 56.8533 78.8794 57.3733 78.8794 58.04C78.8794 58.7867 79.2527 59.36 79.9994 59.76C80.746 60.1333 81.906 60.52 83.4794 60.92C85.0794 61.32 86.3994 61.7333 87.4394 62.16C88.4794 62.5867 89.3727 63.2533 90.1194 64.16C90.8927 65.04 91.2927 66.2133 91.3194 67.68C91.3194 68.96 90.9594 70.1067 90.2394 71.12C89.546 72.1333 88.5327 72.9333 87.1994 73.52C85.8927 74.08 84.3594 74.36 82.5994 74.36ZM98.7563 49.2C97.7696 49.2 96.9429 48.8933 96.2763 48.28C95.6363 47.64 95.3163 46.8533 95.3163 45.92C95.3163 44.9867 95.6363 44.2133 96.2763 43.6C96.9429 42.96 97.7696 42.64 98.7563 42.64C99.7429 42.64 100.556 42.96 101.196 43.6C101.863 44.2133 102.196 44.9867 102.196 45.92C102.196 46.8533 101.863 47.64 101.196 48.28C100.556 48.8933 99.7429 49.2 98.7563 49.2ZM101.516 51.84V74H95.9163V51.84H101.516ZM115.729 51.48C117.382 51.48 118.836 51.8133 120.089 52.48C121.342 53.12 122.329 53.96 123.049 55V51.84H128.689V74.16C128.689 76.2133 128.276 78.04 127.449 79.64C126.622 81.2667 125.382 82.5467 123.729 83.48C122.076 84.44 120.076 84.92 117.729 84.92C114.582 84.92 111.996 84.1867 109.969 82.72C107.969 81.2533 106.836 79.2533 106.569 76.72H112.129C112.422 77.7333 113.049 78.5333 114.009 79.12C114.996 79.7333 116.182 80.04 117.569 80.04C119.196 80.04 120.516 79.5467 121.529 78.56C122.542 77.6 123.049 76.1333 123.049 74.16V70.72C122.329 71.76 121.329 72.6267 120.049 73.32C118.796 74.0133 117.356 74.36 115.729 74.36C113.862 74.36 112.156 73.88 110.609 72.92C109.062 71.96 107.836 70.6133 106.929 68.88C106.049 67.12 105.609 65.1067 105.609 62.84C105.609 60.6 106.049 58.6133 106.929 56.88C107.836 55.1467 109.049 53.8133 110.569 52.88C112.116 51.9467 113.836 51.48 115.729 51.48ZM123.049 62.92C123.049 61.56 122.782 60.4 122.249 59.44C121.716 58.4533 120.996 57.7067 120.089 57.2C119.182 56.6667 118.209 56.4 117.169 56.4C116.129 56.4 115.169 56.6533 114.289 57.16C113.409 57.6667 112.689 58.4133 112.129 59.4C111.596 60.36 111.329 61.5067 111.329 62.84C111.329 64.1733 111.596 65.3467 112.129 66.36C112.689 67.3467 113.409 68.1067 114.289 68.64C115.196 69.1733 116.156 69.44 117.169 69.44C118.209 69.44 119.182 69.1867 120.089 68.68C120.996 68.1467 121.716 67.4 122.249 66.44C122.782 65.4533 123.049 64.28 123.049 62.92ZM146.438 51.52C149.078 51.52 151.212 52.36 152.838 54.04C154.465 55.6933 155.278 58.0133 155.278 61V74H149.678V61.76C149.678 60 149.238 58.6533 148.358 57.72C147.478 56.76 146.278 56.28 144.758 56.28C143.212 56.28 141.985 56.76 141.078 57.72C140.198 58.6533 139.758 60 139.758 61.76V74H134.158V51.84H139.758V54.6C140.505 53.64 141.452 52.8933 142.598 52.36C143.772 51.8 145.052 51.52 146.438 51.52ZM176.655 56.44V67.16C176.655 67.9067 176.828 68.4533 177.175 68.8C177.548 69.12 178.162 69.28 179.015 69.28H181.615V74H178.095C173.375 74 171.015 71.7067 171.015 67.12V56.44H168.375V51.84H171.015V46.36H176.655V51.84H181.615V56.44H176.655ZM195.483 74.36C193.349 74.36 191.429 73.8933 189.723 72.96C188.016 72 186.669 70.6533 185.683 68.92C184.723 67.1867 184.243 65.1867 184.243 62.92C184.243 60.6533 184.736 58.6533 185.723 56.92C186.736 55.1867 188.109 53.8533 189.843 52.92C191.576 51.96 193.509 51.48 195.643 51.48C197.776 51.48 199.709 51.96 201.443 52.92C203.176 53.8533 204.536 55.1867 205.523 56.92C206.536 58.6533 207.043 60.6533 207.043 62.92C207.043 65.1867 206.523 67.1867 205.483 68.92C204.469 70.6533 203.083 72 201.323 72.96C199.589 73.8933 197.643 74.36 195.483 74.36ZM195.483 69.48C196.496 69.48 197.443 69.24 198.323 68.76C199.229 68.2533 199.949 67.5067 200.483 66.52C201.016 65.5333 201.283 64.3333 201.283 62.92C201.283 60.8133 200.723 59.2 199.603 58.08C198.509 56.9333 197.163 56.36 195.563 56.36C193.963 56.36 192.616 56.9333 191.523 58.08C190.456 59.2 189.923 60.8133 189.923 62.92C189.923 65.0267 190.443 66.6533 191.483 67.8C192.549 68.92 193.883 69.48 195.483 69.48ZM224.271 74L216.751 64.56V74H211.151V44.4H216.751V61.24L224.191 51.84H231.471L221.711 62.96L231.551 74H224.271ZM255.11 62.44C255.11 63.24 255.057 63.96 254.95 64.6H238.75C238.883 66.2 239.443 67.4533 240.43 68.36C241.417 69.2667 242.63 69.72 244.07 69.72C246.15 69.72 247.63 68.8267 248.51 67.04H254.55C253.91 69.1733 252.683 70.9333 250.87 72.32C249.057 73.68 246.83 74.36 244.19 74.36C242.057 74.36 240.137 73.8933 238.43 72.96C236.75 72 235.43 70.6533 234.47 68.92C233.537 67.1867 233.07 65.1867 233.07 62.92C233.07 60.6267 233.537 58.6133 234.47 56.88C235.403 55.1467 236.71 53.8133 238.39 52.88C240.07 51.9467 242.003 51.48 244.19 51.48C246.297 51.48 248.177 51.9333 249.83 52.84C251.51 53.7467 252.803 55.04 253.71 56.72C254.643 58.3733 255.11 60.28 255.11 62.44ZM249.31 60.84C249.283 59.4 248.763 58.2533 247.75 57.4C246.737 56.52 245.497 56.08 244.03 56.08C242.643 56.08 241.47 56.5067 240.51 57.36C239.577 58.1867 239.003 59.3467 238.79 60.84H249.31ZM271.478 51.52C274.118 51.52 276.251 52.36 277.878 54.04C279.504 55.6933 280.318 58.0133 280.318 61V74H274.718V61.76C274.718 60 274.278 58.6533 273.398 57.72C272.518 56.76 271.318 56.28 269.798 56.28C268.251 56.28 267.024 56.76 266.118 57.72C265.238 58.6533 264.798 60 264.798 61.76V74H259.198V51.84H264.798V54.6C265.544 53.64 266.491 52.8933 267.638 52.36C268.811 51.8 270.091 51.52 271.478 51.52Z" fill="white"/>
<defs>
<linearGradient id="paint0_linear_1232_178" x1="9" y1="58" x2="9" y2="76" gradientUnits="userSpaceOnUse">
<stop stop-color="#FF9800"/>
<stop offset="1" stop-color="#FA2B76"/>
</linearGradient>
<linearGradient id="paint1_linear_1232_178" x1="9" y1="31" x2="9" y2="49" gradientUnits="userSpaceOnUse">
<stop stop-color="#03A9F4"/>
<stop offset="1" stop-color="#FA2B76"/>
</linearGradient>
<linearGradient id="paint2_linear_1232_178" x1="9" y1="4" x2="9" y2="22" gradientUnits="userSpaceOnUse">
<stop stop-color="#673AB7"/>
<stop offset="1" stop-color="#FA2B76"/>
</linearGradient>
</defs>
</svg>
